<svg width="61" height="59" viewBox="0 0 61 59" fill="none" xmlns="http://www.w3.org/2000/svg">
<g clip-path="url(#clip0_13_8)">
<path d="M3 33.5C3 34.8807 4.11929 36 5.5 36H26.0738C27.4545 36 28.5738 34.8807 28.5738 33.5C28.5738 32.1193 27.4545 31 26.0738 31H5.5C4.11929 31 3 32.1193 3 33.5ZM3 21C3 22.3807 4.11929 23.5 5.5 23.5H48.5C49.8807 23.5 51 22.3807 51 21C51 19.6193 49.8807 18.5 48.5 18.5H5.5C4.11929 18.5 3 19.6193 3 21Z" fill="white"/>
</g>
<defs>
<clipPath id="clip0_13_8">
<rect width="61" height="59" fill="white"/>
</clipPath>
</defs>
</svg>
