<svg width="53" height="44" viewBox="0 0 53 44" fill="none" xmlns="http://www.w3.org/2000/svg">
<path d="M45.2441 32.155H42.3847L41.3712 31.3863C44.9183 28.141 47.0539 23.9276 47.0539 19.3442C47.0539 9.12412 36.521 0.839844 23.5269 0.839844C10.5328 0.839844 0 9.12412 0 19.3442C0 29.5644 10.5328 37.8487 23.5269 37.8487C29.3544 37.8487 34.7113 36.169 38.8375 33.3791L39.8148 34.1762V36.4252L48.5833 43.2295L53 39.1924L45.2441 32.155ZM23.5269 32.155C14.5143 32.155 7.23906 26.4329 7.23906 19.3442C7.23906 12.2556 14.5143 6.53351 23.5269 6.53351C32.5396 6.53351 39.8148 12.2556 39.8148 19.3442C39.8148 26.4329 32.5396 32.155 23.5269 32.155Z" fill="white"/>
</svg>
